<svg width="380" height="380" viewBox="0 0 380 380" fill="none" xmlns="http://www.w3.org/2000/svg">
<path d="M147.426 284.82C136.926 275.32 130.425 255.32 130.425 255.32C130.425 255.32 129.272 268.899 131.425 277.82C134.875 292.112 139.328 301.061 145.648 313.763L145.926 314.32C150.91 324.339 158.926 337.82 158.926 337.82L174.426 300.32C174.426 300.32 159.485 295.732 147.426 284.82Z" fill="white"/>
<path d="M214.426 291.82C207.983 296.321 196.426 300.32 196.426 300.32L211.426 337.32C211.426 337.32 221.426 321.561 226.926 309.82C231.844 299.32 238.426 285.82 240.426 272.32C241.57 264.594 240.426 255.32 240.426 255.32C240.426 255.32 234.87 270.779 228.426 278.82C223.76 284.642 220.542 287.548 214.426 291.82Z" fill="white"/>
<path d="M244.426 181.32L243.926 176.32H247.426C247.426 176.32 246.011 177.844 245.426 178.82C244.84 179.797 244.426 181.32 244.426 181.32Z" fill="white"/>
<path d="M193.926 50.3199C177.926 48.3199 151.315 36.766 142.926 44.8199C130.426 56.8198 118.426 111.32 118.426 111.32C118.426 111.32 110.926 110.82 103.426 110.82C91.9255 110.82 78.5111 114.702 74.4255 120.32C70.4255 125.82 71.2259 133.091 77.9255 137.82C94.9255 149.82 110.547 154.177 132.926 160.32C158.426 167.32 181.426 171.57 206.426 173.82C234.819 176.375 254.426 178.82 279.426 173.82C290.985 171.508 302.926 165.82 306.926 159.32C310.926 152.82 308.926 148.098 300.926 142.32C289.926 134.375 262.926 128.32 262.926 128.32C262.926 128.32 262.926 89.3198 261.926 71.3198C259.426 58.3198 252.035 54.4485 246.426 52.8198C236.251 49.8659 216.301 53.1169 193.926 50.3199Z" fill="white"/>
<path d="M112.926 132.32L118.426 111.32C118.426 111.32 151.603 110.781 173.426 112.32L173.735 112.342C191.68 113.607 213.819 115.168 236.426 120.82C248.426 123.82 262.926 128.32 262.926 128.32V150.32C262.926 150.32 241.926 145.918 225.926 143.82C209.926 141.722 174.926 138.431 155.926 136.32C137.926 134.32 112.926 132.32 112.926 132.32Z" fill="#490000"/>
<path d="M122.425 172.82C120.556 167.06 121.925 156.82 121.925 156.82L128.926 158.82C128.926 158.82 127.325 166.526 126.926 169.32C126.401 172.995 126.426 181.82 126.426 181.82C126.426 181.82 123.585 176.393 122.425 172.82Z" fill="white"/>
<path d="M161.926 245.581C160.277 243.987 158.426 241.32 158.426 241.32C158.426 241.32 163.426 245.581 168.426 246.646C172.926 247.604 196.333 248.5 202.426 246.646C205.926 245.581 212.426 241.321 212.426 241.321C212.426 241.321 208.426 247.857 203.426 249.309C198.426 250.761 177.926 250.374 169.926 249.841C167.381 249.672 163.926 247.514 161.926 245.581Z" fill="white"/>
</svg>
